<svg width="22" height="15" viewBox="0 0 22 15" fill="none" xmlns="http://www.w3.org/2000/svg">
<rect x="4" y="5" width="6" height="2" rx="1" fill="#999999"/>
<rect x="8" y="3" width="6" height="2" rx="1" transform="rotate(90 8 3)" fill="#999999"/>
<path d="M14.8765 4.89958C15.4011 4.89958 15.8263 4.47435 15.8263 3.94979C15.8263 3.42524 15.4011 3 14.8765 3C14.352 3 13.9268 3.42524 13.9268 3.94979C13.9268 4.47435 14.352 4.89958 14.8765 4.89958Z" fill="#999999"/>
<path d="M14.8765 8.7531C15.4011 8.7531 15.8263 8.32786 15.8263 7.80331C15.8263 7.27875 15.4011 6.85352 14.8765 6.85352C14.352 6.85352 13.9268 7.27875 13.9268 7.80331C13.9268 8.32786 14.352 8.7531 14.8765 8.7531Z" fill="#999999"/>
<path d="M12.9498 6.82586C13.4743 6.82586 13.8996 6.40062 13.8996 5.87607C13.8996 5.35151 13.4743 4.92627 12.9498 4.92627C12.4252 4.92627 12 5.35151 12 5.87607C12 6.40062 12.4252 6.82586 12.9498 6.82586Z" fill="#999999"/>
<path d="M16.8031 6.82586C17.3276 6.82586 17.7529 6.40062 17.7529 5.87607C17.7529 5.35151 17.3276 4.92627 16.8031 4.92627C16.2785 4.92627 15.8533 5.35151 15.8533 5.87607C15.8533 6.40062 16.2785 6.82586 16.8031 6.82586Z" fill="#999999"/>
<path d="M20.9893 9.99053C20.9394 8.85647 20.7401 7.59916 20.4412 6.4158C20.1423 5.28175 19.7686 4.22166 19.3202 3.4081C17.5765 0.37575 15.6832 0.844162 13.4164 1.43584C12.6939 1.60841 11.9217 1.80564 11.1246 1.8796H10.8754C10.0783 1.80564 9.30606 1.60841 8.58365 1.43584C6.31676 0.868815 4.42354 0.37575 2.67978 3.43276C2.23138 4.24631 1.83281 5.3064 1.55879 6.44045C1.25986 7.62381 1.06057 8.88113 1.01075 10.0152C0.960928 11.2725 1.08548 12.1847 1.3595 12.8257C1.63352 13.4173 2.03209 13.7871 2.55522 13.935C3.02853 14.0583 3.57657 14.009 4.14952 13.7625C5.12104 13.368 6.24203 12.5298 7.33811 11.519C8.11034 10.7794 9.55517 10.4096 11 10.4096C12.4448 10.4096 13.8897 10.7794 14.6619 11.519C15.758 12.5298 16.879 13.368 17.8505 13.7625C18.4234 13.9844 18.9715 14.0583 19.4448 13.935C19.943 13.7871 20.3665 13.442 20.6405 12.801C20.9145 12.1847 21.0391 11.2725 20.9893 9.99053ZM19.7935 12.4559C19.6441 12.801 19.4448 12.9982 19.1957 13.0722C18.9217 13.1461 18.5729 13.0968 18.1743 12.9489C17.3024 12.6038 16.2811 11.8395 15.2847 10.9027C14.3381 9.96587 12.669 9.49746 11 9.49746C9.33097 9.49746 7.66195 9.96587 6.69042 10.8534C5.66908 11.7902 4.64773 12.5791 3.80077 12.8996C3.40219 13.0475 3.05344 13.1215 2.77942 13.0229C2.53031 12.9489 2.33102 12.7517 2.18156 12.4065C1.98227 11.9381 1.88263 11.1739 1.93245 10.0398C1.98227 8.97974 2.15665 7.77173 2.45558 6.63768C2.7296 5.57759 3.07835 4.59146 3.50184 3.85186C4.87193 1.41119 6.46623 1.80564 8.35945 2.29871C9.13169 2.49593 9.92883 2.69316 10.8007 2.76712C10.8256 2.76712 10.8256 2.76712 10.8505 2.76712H11.1246C11.1495 2.76712 11.1495 2.76712 11.1744 2.76712C12.0712 2.69316 12.8683 2.49593 13.6406 2.29871C15.5338 1.83029 17.1281 1.41119 18.4982 3.85186C18.9217 4.59146 19.2704 5.55294 19.5444 6.63768C19.8184 7.77173 20.0177 8.95509 20.0676 10.0398C20.1174 11.1739 20.0177 11.9381 19.7935 12.4559Z" stroke="#999999"/>
</svg>
