<svg width="26" height="19" viewBox="0 0 26 19" fill="none" xmlns="http://www.w3.org/2000/svg">
<path d="M4 0L4.89806 2.76393H7.80423L5.45308 4.47214L6.35114 7.23607L4 5.52786L1.64886 7.23607L2.54692 4.47214L0.195774 2.76393H3.10194L4 0Z" fill="#999999"/>
<line x1="1" y1="10" x2="7" y2="10" stroke="#999999" stroke-width="2"/>
<line x1="1" y1="14" x2="7" y2="14" stroke="#999999" stroke-width="2"/>
<line x1="1" y1="18" x2="7" y2="18" stroke="#999999" stroke-width="2"/>
<path d="M4 0L4.89806 2.76393H7.80423L5.45308 4.47214L6.35114 7.23607L4 5.52786L1.64886 7.23607L2.54692 4.47214L0.195774 2.76393H3.10194L4 0Z" fill="#999999"/>
<line x1="1" y1="10" x2="7" y2="10" stroke="#999999" stroke-width="2"/>
<line x1="1" y1="14" x2="7" y2="14" stroke="#999999" stroke-width="2"/>
<line x1="1" y1="18" x2="7" y2="18" stroke="#999999" stroke-width="2"/>
<path d="M13 0L13.8981 2.76393H16.8042L14.4531 4.47214L15.3511 7.23607L13 5.52786L10.6489 7.23607L11.5469 4.47214L9.19577 2.76393H12.1019L13 0Z" fill="#999999"/>
<line x1="10" y1="10" x2="16" y2="10" stroke="#999999" stroke-width="2"/>
<line x1="10" y1="14" x2="16" y2="14" stroke="#999999" stroke-width="2"/>
<line x1="10" y1="18" x2="16" y2="18" stroke="#999999" stroke-width="2"/>
<path d="M13 0L13.8981 2.76393H16.8042L14.4531 4.47214L15.3511 7.23607L13 5.52786L10.6489 7.23607L11.5469 4.47214L9.19577 2.76393H12.1019L13 0Z" fill="#999999"/>
<line x1="10" y1="10" x2="16" y2="10" stroke="#999999" stroke-width="2"/>
<line x1="10" y1="14" x2="16" y2="14" stroke="#999999" stroke-width="2"/>
<line x1="10" y1="18" x2="16" y2="18" stroke="#999999" stroke-width="2"/>
<path d="M22 0L22.8981 2.76393H25.8042L23.4531 4.47214L24.3511 7.23607L22 5.52786L19.6489 7.23607L20.5469 4.47214L18.1958 2.76393H21.1019L22 0Z" fill="#999999"/>
<line x1="19" y1="10" x2="25" y2="10" stroke="#999999" stroke-width="2"/>
<line x1="19" y1="14" x2="25" y2="14" stroke="#999999" stroke-width="2"/>
<line x1="19" y1="18" x2="25" y2="18" stroke="#999999" stroke-width="2"/>
<path d="M22 0L22.8981 2.76393H25.8042L23.4531 4.47214L24.3511 7.23607L22 5.52786L19.6489 7.23607L20.5469 4.47214L18.1958 2.76393H21.1019L22 0Z" fill="#999999"/>
<line x1="19" y1="10" x2="25" y2="10" stroke="#999999" stroke-width="2"/>
<line x1="19" y1="14" x2="25" y2="14" stroke="#999999" stroke-width="2"/>
<line x1="19" y1="18" x2="25" y2="18" stroke="#999999" stroke-width="2"/>
</svg>
